<?xml version="1.0" encoding="utf-8"?><svg xmlns="http://www.w3.org/2000/svg" xmlns:xlink="http://www.w3.org/1999/xlink"><symbol viewBox="0 0 512 512" id="box" xmlns="http://www.w3.org/2000/svg"><path d="M491.729 112.971L259.261.745a7.503 7.503 0 00-6.521 0L20.271 112.971a7.5 7.5 0 00-4.239 6.754v272.549a7.5 7.5 0 004.239 6.754l232.468 112.226a7.504 7.504 0 006.522 0l232.468-112.226a7.5 7.5 0 004.239-6.754V119.726a7.502 7.502 0 00-4.239-6.755zM256 15.828l215.217 103.897-62.387 30.118a7.434 7.434 0 00-1.27-.8L193.805 45.853 256 15.828zm-79.133 38.505l214.904 103.746-44.015 21.249L132.941 75.624l43.926-21.291zm219.932 117.974v78.546l-41.113 19.848v-78.546l41.113-19.848zm84.169 215.261L263.5 492.55V236.658l51.873-25.042a7.5 7.5 0 10-6.522-13.508L256 223.623l-20.796-10.04a7.498 7.498 0 00-10.015 3.493 7.5 7.5 0 003.493 10.015l19.818 9.567V492.55L31.032 387.566V131.674l165.6 79.945a7.463 7.463 0 003.255.748 7.5 7.5 0 003.266-14.256l-162.37-78.386 74.505-35.968L340.582 192.52c.033.046.07.087.104.132v89.999a7.502 7.502 0 0010.761 6.754l56.113-27.089a7.499 7.499 0 004.239-6.754v-90.495l69.169-33.392v255.893z"/><path d="M92.926 358.479L58.811 342.01a7.5 7.5 0 00-6.522 13.508l34.115 16.469a7.463 7.463 0 003.255.748 7.5 7.5 0 006.759-4.241 7.499 7.499 0 00-3.492-10.015zm31.397-20.437l-65.465-31.604a7.501 7.501 0 00-6.521 13.509l65.465 31.604a7.477 7.477 0 003.255.748 7.5 7.5 0 003.266-14.257z"/></symbol><symbol viewBox="0 0 512 512" id="mortar" xmlns="http://www.w3.org/2000/svg"><path d="M235.998 411.998c-5.52 0-10 4.48-10 10s4.48 10 10 10 10-4.48 10-10-4.48-10-10-10z"/><path d="M471.995 226h-58.129l55.875-66.036c10.878 4.872 24.321 2.988 33.465-6.181 11.725-11.725 11.725-30.698 0-42.422l-56.578-56.579c-11.618-11.588-30.537-11.836-42.413.01-9.03 9.03-11.081 22.43-6.167 33.453L235.246 226H40c-22.056 0-40 17.944-40 40 0 16.747 10.424 31.669 26.015 37.388.6 74.44 49.385 139.508 119.984 161.135v17.475c0 16.542 13.458 30 30 30h159.998c16.542 0 30-13.458 30-30v-17.475c70.599-21.63 119.384-86.696 119.984-161.136 15.591-5.717 26.015-20.64 26.015-37.387-.001-22.056-17.945-40-40.001-40zM418.348 68.943a9.987 9.987 0 0114.147-.01l56.568 56.57c3.856 3.856 3.964 10.173-.01 14.147-3.887 3.899-10.231 3.898-14.117 0l-.005-.005-.005-.005-56.569-56.569-.002-.002c-3.895-3.898-3.894-10.239-.007-14.126zm-7.626 34.776l43.558 43.558L387.667 226H266.206l144.516-122.281zm-64.725 378.28c0 5.514-4.486 9.999-10 9.999H175.998c-5.514 0-10-4.486-10-10v-12.662a171.287 171.287 0 0030 2.663h119.999c10.089 0 20.132-.906 30-2.663v12.663zm7.509-34.725a150.669 150.669 0 01-37.509 4.725H195.998c-12.701 0-25.321-1.59-37.51-4.725-64.937-16.699-110.674-74.556-112.435-141.375h419.891c-1.763 66.819-47.5 124.676-112.438 141.375zm125.229-162.527c-.084.029-.168.059-.251.09-2.146.805-4.147 1.164-6.489 1.164H40c-10.515 0-20-8.523-20-20 0-11.028 8.972-20 20-20h431.996c11.028-.001 20 8.972 20 19.999-.001 8.478-5.33 16.012-13.261 18.747z"/><path d="M195.998 411.999c-46.489 0-88.167-29.473-103.713-73.339-1.846-5.206-7.564-7.929-12.766-6.085-5.206 1.843-7.93 7.559-6.085 12.765 18.369 51.833 67.623 86.659 122.564 86.659 5.522 0 10-4.477 10-10s-4.478-10-10-10zm47.071-249.07l-17.071-17.07v-35.857c0-60.654-49.346-110-109.999-110h-40c-5.522 0-10 4.477-10 10v40c0 60.653 49.346 109.999 109.999 109.999h35.857l17.071 17.071c3.906 3.905 10.236 3.905 14.143 0 3.905-3.905 3.905-10.237 0-14.143zm-37.071-37.071L123.07 42.93c-3.906-3.905-10.236-3.905-14.143 0-3.905 3.905-3.905 10.237 0 14.143l82.928 82.928h-15.857c-49.626 0-89.999-40.374-89.999-89.999v-30h30c49.626 0 89.999 40.374 89.999 89.999v15.857zM275.997.002c-16.542 0-30 13.458-30 30s13.458 30 30 30 30-13.458 30-30-13.458-30-30-30zm0 40c-5.514 0-10-4.486-10-10s4.486-10 10-10 10 4.486 10 10-4.486 10-10 10z"/></symbol><symbol viewBox="0 0 512.001 512.001" id="rain" xmlns="http://www.w3.org/2000/svg"><path d="M400.001 336h-288c-61.757 0-112-50.243-112-112s50.243-112 112-112c5.673 0 11.298.421 16.844 1.258C136.177 49.595 190.405 0 256.001 0s119.824 49.595 127.156 113.258A112.818 112.818 0 01400.001 112c61.757 0 112 50.243 112 112s-50.243 112-112 112zm-288-192c-44.112 0-80 35.888-80 80s35.888 80 80 80h288c44.112 0 80-35.888 80-80s-35.888-80-80-80c-9.204 0-18.216 1.543-26.784 4.587a15.998 15.998 0 01-21.332-15.952c.077-1.423.115-2.939.115-4.635 0-52.935-43.065-96-96-96s-96 43.065-96 96c0 1.696.038 3.212.115 4.635a16.001 16.001 0 01-21.332 15.952c-8.566-3.044-17.578-4.587-26.782-4.587zm103.985 280.001c-3.05 0-6.133-.87-8.86-2.688-7.353-4.902-9.34-14.836-4.438-22.188l16-24c4.902-7.353 14.837-9.339 22.188-4.438 7.353 4.902 9.34 14.836 4.438 22.188l-16 24c-3.084 4.625-8.158 7.126-13.328 7.126zm-136 0c-3.05 0-6.133-.87-8.86-2.688-7.353-4.902-9.34-14.836-4.438-22.188l16-24c4.901-7.353 14.837-9.339 22.188-4.438 7.353 4.902 9.34 14.836 4.438 22.188l-16 24c-3.084 4.625-8.158 7.126-13.328 7.126zm288 0c-3.05 0-6.133-.87-8.86-2.688-7.353-4.902-9.34-14.836-4.438-22.188l16-24c4.902-7.353 14.836-9.339 22.188-4.438 7.353 4.902 9.34 14.836 4.438 22.188l-16 24c-3.084 4.625-8.158 7.126-13.328 7.126zm-152 88c-3.05 0-6.133-.87-8.86-2.688-7.353-4.902-9.34-14.836-4.438-22.188l16-24c4.902-7.353 14.837-9.339 22.188-4.438 7.353 4.902 9.34 14.836 4.438 22.188l-16 24c-3.084 4.625-8.158 7.126-13.328 7.126zm72-56c-3.05 0-6.133-.87-8.86-2.688-7.353-4.902-9.34-14.836-4.438-22.188l16-24c4.901-7.353 14.837-9.338 22.188-4.438 7.353 4.902 9.34 14.836 4.438 22.188l-16 24c-3.084 4.625-8.158 7.126-13.328 7.126zm72 56c-3.05 0-6.133-.87-8.86-2.688-7.353-4.902-9.34-14.836-4.438-22.188l16-24c4.901-7.353 14.836-9.339 22.188-4.438 7.353 4.902 9.34 14.836 4.438 22.188l-16 24c-3.084 4.625-8.158 7.126-13.328 7.126zm-216-56c-3.05 0-6.133-.87-8.86-2.688-7.353-4.902-9.34-14.836-4.438-22.188l16-24c4.901-7.353 14.836-9.338 22.188-4.438 7.353 4.902 9.34 14.836 4.438 22.188l-16 24c-3.084 4.625-8.158 7.126-13.328 7.126zm-72 56c-3.05 0-6.133-.87-8.86-2.688-7.353-4.902-9.34-14.836-4.438-22.188l16-24c4.901-7.353 14.837-9.339 22.188-4.438 7.353 4.902 9.34 14.836 4.438 22.188l-16 24c-3.084 4.625-8.158 7.126-13.328 7.126z"/></symbol><symbol viewBox="0 0 512.013 512.013" id="storm" xmlns="http://www.w3.org/2000/svg"><path d="M441.754 165.749a73.409 73.409 0 00-9.252-18.227l5.738.012c31.54 0 57.2-25.66 57.2-57.2 0-31.541-25.66-57.2-57.2-57.2-1.56 0-3.136.067-4.716.2C420.006 12.65 396.869 0 371.973 0c-31.954 0-59.654 20.206-69.633 49.935a49.036 49.036 0 00-4.788-.234c-15.729 0-30.361 7.718-39.42 20.067a98.773 98.773 0 00-15.071-15.026c-17.395-13.934-39.273-21.608-61.605-21.608-21.287 0-41.558 6.676-58.619 19.306a7.502 7.502 0 00-1.567 10.491 7.501 7.501 0 0010.49 1.566c14.461-10.705 31.645-16.362 49.695-16.362 29.426 0 55.71 15.094 70.67 38.792l.926 1.512a83.616 83.616 0 018.173 18.217c-17.757 9.918-29.286 28.845-29.286 49.947 0 4.142 3.357 7.5 7.5 7.5s7.5-3.358 7.5-7.5c0-17.244 10.433-32.516 25.982-38.97.023-.009-.023.01 0 0a42.315 42.315 0 0116.218-3.23c16.235 0 31.217 9.494 38.167 24.186a7.499 7.499 0 0011.073 2.942c9.894-6.909 21.51-10.561 33.593-10.561 26.854 0 50.264 18.141 56.927 44.116a7.472 7.472 0 007.498 5.633s1.397-.049 1.842-.049c32.404 0 58.767 26.363 58.767 58.767s-26.362 58.767-58.767 58.767-58.767-26.363-58.767-58.767c0-4.142-3.357-7.5-7.5-7.5s-7.5 3.358-7.5 7.5c0 23.962 11.491 45.284 29.244 58.767h-88.65l4.12-12.359c1.6-4.8.789-10.115-2.169-14.22a15.824 15.824 0 00-12.805-6.555h-64.466a15.791 15.791 0 00-15.513 12.874l-3.799 20.259H136.44c-4.143 0-7.5 3.358-7.5 7.5s3.357 7.5 7.5 7.5h71.184l-15.132 80.708a15.732 15.732 0 003.367 12.989 15.736 15.736 0 0012.145 5.704h38.148c.091 0 .365 0 .601.279a.74.74 0 01.171.639l-14.816 84.911c-.947 5.679 2.184 10.981 7.613 12.894 1.321.466 2.662.69 3.976.69 4.085 0 7.904-2.166 10.04-5.961.048-.085.095-.172.14-.259l60.612-118.348c2.526-4.932 2.31-10.7-.581-15.428s-7.924-7.551-13.466-7.551h-16.375c-.1 0-.401 0-.636-.325a.735.735 0 01-.107-.706l16.745-50.235H438.24c40.675 0 73.767-33.092 73.767-73.767 0-39.502-31.202-71.849-70.253-73.688zm-104.999-40.832C326.247 109.194 308.342 99.4 289.14 99.4c-4.74 0-9.4.574-13.932 1.712a98.48 98.48 0 00-7.854-17.749c5.677-11.28 17.403-18.663 30.198-18.663 2.809 0 5.607.348 8.316 1.033a7.495 7.495 0 009.143-5.567C321.216 33.573 344.638 15 371.973 15c17.901 0 34.661 8.222 45.668 21.953-21.733 8.336-36.602 29.296-36.602 53.38 0 4.142 3.357 7.5 7.5 7.5s7.5-3.358 7.5-7.5c0-20.507 14.601-37.952 34.736-41.54.051-.008 5.065-.66 7.464-.66 23.27 0 42.2 18.931 42.2 42.2s-18.931 42.2-42.185 42.2l-19.734-.04c-12.816-10.412-29.099-16.526-46.548-16.526-12.419 0-24.446 3.074-35.217 8.95zm-67.663 233.775c-1.6 4.8-.789 10.116 2.169 14.22s7.745 6.555 12.805 6.555h16.375c.132 0 .438 0 .668.375a.71.71 0 01.028.766l-50.425 98.456 10.988-62.965a15.749 15.749 0 00-3.466-12.869 15.749 15.749 0 00-12.083-5.628h-38.148c-.091 0-.367 0-.603-.283a.743.743 0 01-.167-.645l16.773-89.456.003-.014 4.968-26.497a.782.782 0 01.77-.638h64.466c.1 0 .401 0 .636.325a.735.735 0 01.107.706l-7.452 22.358-.007.02z"/><path d="M106.441 298.2H90.34c-41.539 0-75.333-33.794-75.333-75.333 0-41.514 33.755-75.293 75.259-75.334.142.005.283.009.425.01l.011-.001c41.373.196 74.972 33.907 74.972 75.324 0 4.142 3.357 7.5 7.5 7.5s7.5-3.358 7.5-7.5c0-47.276-36.506-86.18-82.808-90.018-.005-.365-.025-.738-.025-1.099 0-17.117 5.134-33.57 14.848-47.581a7.5 7.5 0 10-12.329-8.546c-11.461 16.532-17.52 35.94-17.52 56.126 0 .362.002.726.006 1.091C36.53 136.66.007 175.578.007 222.864c0 49.81 40.523 90.333 90.333 90.333h16.102a7.5 7.5 0 007.5-7.5 7.5 7.5 0 00-7.501-7.497zM40.64 331.333a7.5 7.5 0 00-7.5 7.5V405.1c0 4.142 3.357 7.5 7.5 7.5s7.5-3.358 7.5-7.5v-66.267a7.5 7.5 0 00-7.5-7.5zm107.683 0a7.5 7.5 0 00-7.5 7.5V405.1c0 4.142 3.357 7.5 7.5 7.5s7.5-3.358 7.5-7.5v-66.267a7.5 7.5 0 00-7.5-7.5zm-53.842 99.4a7.5 7.5 0 00-7.5 7.5V504.5c0 4.142 3.357 7.5 7.5 7.5s7.5-3.358 7.5-7.5v-66.267a7.5 7.5 0 00-7.5-7.5zm269.209-99.4a7.5 7.5 0 00-7.5 7.5V405.1c0 4.142 3.357 7.5 7.5 7.5s7.5-3.358 7.5-7.5v-66.267a7.5 7.5 0 00-7.5-7.5zm107.683 0a7.5 7.5 0 00-7.5 7.5V405.1c0 4.142 3.357 7.5 7.5 7.5s7.5-3.358 7.5-7.5v-66.267a7.5 7.5 0 00-7.5-7.5zm-53.841 99.4a7.5 7.5 0 00-7.5 7.5V504.5c0 4.142 3.357 7.5 7.5 7.5s7.5-3.358 7.5-7.5v-66.267a7.5 7.5 0 00-7.5-7.5z"/></symbol></svg>