<svg version="1.1" id="Capa_1" xmlns="http://www.w3.org/2000/svg" x="0" y="0" viewBox="0 0 512 512" xml:space="preserve"><path d="M235.998 411.998c-5.52 0-10 4.48-10 10s4.48 10 10 10 10-4.48 10-10-4.48-10-10-10z"/><path d="M471.995 226h-58.129l55.875-66.036c10.878 4.872 24.321 2.988 33.465-6.181 11.725-11.725 11.725-30.698 0-42.422l-56.578-56.579c-11.618-11.588-30.537-11.836-42.413.01-9.03 9.03-11.081 22.43-6.167 33.453L235.246 226H40c-22.056 0-40 17.944-40 40 0 16.747 10.424 31.669 26.015 37.388.6 74.44 49.385 139.508 119.984 161.135v17.475c0 16.542 13.458 30 30 30h159.998c16.542 0 30-13.458 30-30v-17.475c70.599-21.63 119.384-86.696 119.984-161.136 15.591-5.717 26.015-20.64 26.015-37.387-.001-22.056-17.945-40-40.001-40zM418.348 68.943a9.987 9.987 0 0114.147-.01l56.568 56.57c3.856 3.856 3.964 10.173-.01 14.147-3.887 3.899-10.231 3.898-14.117 0l-.005-.005-.005-.005-56.569-56.569-.002-.002c-3.895-3.898-3.894-10.239-.007-14.126zm-7.626 34.776l43.558 43.558L387.667 226H266.206l144.516-122.281zm-64.725 378.28c0 5.514-4.486 9.999-10 9.999H175.998c-5.514 0-10-4.486-10-10v-12.662a171.287 171.287 0 0030 2.663h119.999c10.089 0 20.132-.906 30-2.663v12.663zm7.509-34.725a150.669 150.669 0 01-37.509 4.725H195.998c-12.701 0-25.321-1.59-37.51-4.725-64.937-16.699-110.674-74.556-112.435-141.375h419.891c-1.763 66.819-47.5 124.676-112.438 141.375zm125.229-162.527c-.084.029-.168.059-.251.09-2.146.805-4.147 1.164-6.489 1.164H40c-10.515 0-20-8.523-20-20 0-11.028 8.972-20 20-20h431.996c11.028-.001 20 8.972 20 19.999-.001 8.478-5.33 16.012-13.261 18.747z"/><path d="M195.998 411.999c-46.489 0-88.167-29.473-103.713-73.339-1.846-5.206-7.564-7.929-12.766-6.085-5.206 1.843-7.93 7.559-6.085 12.765 18.369 51.833 67.623 86.659 122.564 86.659 5.522 0 10-4.477 10-10s-4.478-10-10-10zm47.071-249.07l-17.071-17.07v-35.857c0-60.654-49.346-110-109.999-110h-40c-5.522 0-10 4.477-10 10v40c0 60.653 49.346 109.999 109.999 109.999h35.857l17.071 17.071c3.906 3.905 10.236 3.905 14.143 0 3.905-3.905 3.905-10.237 0-14.143zm-37.071-37.071L123.07 42.93c-3.906-3.905-10.236-3.905-14.143 0-3.905 3.905-3.905 10.237 0 14.143l82.928 82.928h-15.857c-49.626 0-89.999-40.374-89.999-89.999v-30h30c49.626 0 89.999 40.374 89.999 89.999v15.857zM275.997.002c-16.542 0-30 13.458-30 30s13.458 30 30 30 30-13.458 30-30-13.458-30-30-30zm0 40c-5.514 0-10-4.486-10-10s4.486-10 10-10 10 4.486 10 10-4.486 10-10 10z"/></svg>