<svg id="Capa_1" height="512" viewBox="0 0 512.013 512.013" width="512" xmlns="http://www.w3.org/2000/svg"><path d="M441.754 165.749a73.409 73.409 0 00-9.252-18.227l5.738.012c31.54 0 57.2-25.66 57.2-57.2 0-31.541-25.66-57.2-57.2-57.2-1.56 0-3.136.067-4.716.2C420.006 12.65 396.869 0 371.973 0c-31.954 0-59.654 20.206-69.633 49.935a49.036 49.036 0 00-4.788-.234c-15.729 0-30.361 7.718-39.42 20.067a98.773 98.773 0 00-15.071-15.026c-17.395-13.934-39.273-21.608-61.605-21.608-21.287 0-41.558 6.676-58.619 19.306a7.502 7.502 0 00-1.567 10.491 7.501 7.501 0 0010.49 1.566c14.461-10.705 31.645-16.362 49.695-16.362 29.426 0 55.71 15.094 70.67 38.792l.926 1.512a83.616 83.616 0 018.173 18.217c-17.757 9.918-29.286 28.845-29.286 49.947 0 4.142 3.357 7.5 7.5 7.5s7.5-3.358 7.5-7.5c0-17.244 10.433-32.516 25.982-38.97.023-.009-.023.01 0 0a42.315 42.315 0 0116.218-3.23c16.235 0 31.217 9.494 38.167 24.186a7.499 7.499 0 0011.073 2.942c9.894-6.909 21.51-10.561 33.593-10.561 26.854 0 50.264 18.141 56.927 44.116a7.472 7.472 0 007.498 5.633s1.397-.049 1.842-.049c32.404 0 58.767 26.363 58.767 58.767s-26.362 58.767-58.767 58.767-58.767-26.363-58.767-58.767c0-4.142-3.357-7.5-7.5-7.5s-7.5 3.358-7.5 7.5c0 23.962 11.491 45.284 29.244 58.767h-88.65l4.12-12.359c1.6-4.8.789-10.115-2.169-14.22a15.824 15.824 0 00-12.805-6.555h-64.466a15.791 15.791 0 00-15.513 12.874l-3.799 20.259H136.44c-4.143 0-7.5 3.358-7.5 7.5s3.357 7.5 7.5 7.5h71.184l-15.132 80.708a15.732 15.732 0 003.367 12.989 15.736 15.736 0 0012.145 5.704h38.148c.091 0 .365 0 .601.279a.74.74 0 01.171.639l-14.816 84.911c-.947 5.679 2.184 10.981 7.613 12.894 1.321.466 2.662.69 3.976.69 4.085 0 7.904-2.166 10.04-5.961.048-.085.095-.172.14-.259l60.612-118.348c2.526-4.932 2.31-10.7-.581-15.428s-7.924-7.551-13.466-7.551h-16.375c-.1 0-.401 0-.636-.325a.735.735 0 01-.107-.706l16.745-50.235H438.24c40.675 0 73.767-33.092 73.767-73.767 0-39.502-31.202-71.849-70.253-73.688zm-104.999-40.832C326.247 109.194 308.342 99.4 289.14 99.4c-4.74 0-9.4.574-13.932 1.712a98.48 98.48 0 00-7.854-17.749c5.677-11.28 17.403-18.663 30.198-18.663 2.809 0 5.607.348 8.316 1.033a7.495 7.495 0 009.143-5.567C321.216 33.573 344.638 15 371.973 15c17.901 0 34.661 8.222 45.668 21.953-21.733 8.336-36.602 29.296-36.602 53.38 0 4.142 3.357 7.5 7.5 7.5s7.5-3.358 7.5-7.5c0-20.507 14.601-37.952 34.736-41.54.051-.008 5.065-.66 7.464-.66 23.27 0 42.2 18.931 42.2 42.2s-18.931 42.2-42.185 42.2l-19.734-.04c-12.816-10.412-29.099-16.526-46.548-16.526-12.419 0-24.446 3.074-35.217 8.95zm-67.663 233.775c-1.6 4.8-.789 10.116 2.169 14.22s7.745 6.555 12.805 6.555h16.375c.132 0 .438 0 .668.375a.71.71 0 01.028.766l-50.425 98.456 10.988-62.965a15.749 15.749 0 00-3.466-12.869 15.749 15.749 0 00-12.083-5.628h-38.148c-.091 0-.367 0-.603-.283a.743.743 0 01-.167-.645l16.773-89.456.003-.014 4.968-26.497a.782.782 0 01.77-.638h64.466c.1 0 .401 0 .636.325a.735.735 0 01.107.706l-7.452 22.358-.007.02z"/><path d="M106.441 298.2H90.34c-41.539 0-75.333-33.794-75.333-75.333 0-41.514 33.755-75.293 75.259-75.334.142.005.283.009.425.01l.011-.001c41.373.196 74.972 33.907 74.972 75.324 0 4.142 3.357 7.5 7.5 7.5s7.5-3.358 7.5-7.5c0-47.276-36.506-86.18-82.808-90.018-.005-.365-.025-.738-.025-1.099 0-17.117 5.134-33.57 14.848-47.581a7.5 7.5 0 10-12.329-8.546c-11.461 16.532-17.52 35.94-17.52 56.126 0 .362.002.726.006 1.091C36.53 136.66.007 175.578.007 222.864c0 49.81 40.523 90.333 90.333 90.333h16.102a7.5 7.5 0 007.5-7.5 7.5 7.5 0 00-7.501-7.497zM40.64 331.333a7.5 7.5 0 00-7.5 7.5V405.1c0 4.142 3.357 7.5 7.5 7.5s7.5-3.358 7.5-7.5v-66.267a7.5 7.5 0 00-7.5-7.5zm107.683 0a7.5 7.5 0 00-7.5 7.5V405.1c0 4.142 3.357 7.5 7.5 7.5s7.5-3.358 7.5-7.5v-66.267a7.5 7.5 0 00-7.5-7.5zm-53.842 99.4a7.5 7.5 0 00-7.5 7.5V504.5c0 4.142 3.357 7.5 7.5 7.5s7.5-3.358 7.5-7.5v-66.267a7.5 7.5 0 00-7.5-7.5zm269.209-99.4a7.5 7.5 0 00-7.5 7.5V405.1c0 4.142 3.357 7.5 7.5 7.5s7.5-3.358 7.5-7.5v-66.267a7.5 7.5 0 00-7.5-7.5zm107.683 0a7.5 7.5 0 00-7.5 7.5V405.1c0 4.142 3.357 7.5 7.5 7.5s7.5-3.358 7.5-7.5v-66.267a7.5 7.5 0 00-7.5-7.5zm-53.841 99.4a7.5 7.5 0 00-7.5 7.5V504.5c0 4.142 3.357 7.5 7.5 7.5s7.5-3.358 7.5-7.5v-66.267a7.5 7.5 0 00-7.5-7.5z"/></svg>